<svg width="13" height="14" viewBox="0 0 13 14" fill="none" xmlns="http://www.w3.org/2000/svg">
<path d="M11.55 5.13031C11.55 5.13031 11.188 9.62031 10.978 11.5116C10.878 12.415 10.32 12.9443 9.40596 12.961C7.66663 12.9923 5.92529 12.9943 4.18663 12.9576C3.30729 12.9396 2.75863 12.4036 2.66063 11.5163C2.44929 9.60831 2.08929 5.13031 2.08929 5.13031" stroke="#1e1e1e" stroke-linecap="round" stroke-linejoin="round"/>
<path d="M12.4721 2.97797H1.16681" stroke="#1e1e1e" stroke-linecap="round" stroke-linejoin="round"/>
<path d="M10.2938 2.97798C9.77043 2.97798 9.31976 2.60798 9.21709 2.09531L9.05509 1.28464C8.95509 0.910644 8.61643 0.651978 8.23043 0.651978H5.40843C5.02243 0.651978 4.68376 0.910644 4.58376 1.28464L4.42176 2.09531C4.31909 2.60798 3.86843 2.97798 3.34509 2.97798" stroke="#1e1e1e" stroke-linecap="round" stroke-linejoin="round"/>
</svg>
