<svg width="14" height="13" viewBox="0 0 14 13" fill="none" xmlns="http://www.w3.org/2000/svg">
<path fill-rule="evenodd" clip-rule="evenodd" d="M6.87948 1.61737L5.66066 4.04967L5.65986 4.05127C5.46475 4.4372 5.09303 4.703 4.66541 4.76333C4.66509 4.7634 4.66479 4.76347 4.66447 4.76347L1.93397 5.15673C1.86433 5.16593 1.80025 5.1984 1.75235 5.24793C1.63498 5.37007 1.63845 5.56413 1.76043 5.68213C1.76031 5.68207 1.76055 5.68227 1.76043 5.68213L3.733 7.57547C3.73318 7.5756 3.73336 7.5758 3.73354 7.576C4.04683 7.8756 4.19091 8.31167 4.11621 8.7396C4.1162 8.73967 4.11621 8.7396 4.11621 8.7396L3.65013 11.4115C3.63976 11.4781 3.65098 11.5471 3.68359 11.6092C3.76639 11.7643 3.95882 11.823 4.11385 11.7407L4.11821 11.7383L6.55555 10.4751C6.93955 10.2767 7.39588 10.2764 7.77981 10.4748L10.2203 11.7398C10.2818 11.7724 10.3518 11.7841 10.4204 11.7733C10.594 11.7451 10.7115 11.5829 10.6851 11.4104L10.2193 8.74073C10.2192 8.74053 10.2193 8.74093 10.2193 8.74073C10.1437 8.31193 10.2877 7.8748 10.602 7.57507C10.6023 7.5748 10.6026 7.57447 10.6029 7.5742L12.5725 5.6818C12.5725 5.68187 12.5726 5.68173 12.5725 5.6818C12.6221 5.63387 12.6547 5.56967 12.6639 5.50093C12.6859 5.33187 12.567 5.178 12.3999 5.15607L12.3937 5.15527L9.66881 4.7628C9.66848 4.7628 9.66815 4.76273 9.66788 4.76267C9.24041 4.7024 8.86815 4.43655 8.67361 4.04961L7.45635 1.61717C7.42508 1.55785 7.37708 1.51062 7.31921 1.48079L7.31828 1.48031C7.15868 1.39759 6.96301 1.45923 6.87948 1.61737ZM7.77781 0.592153C7.12768 0.255633 6.32741 0.509026 5.99035 1.15967L4.76742 3.60009C4.76732 3.60029 4.76721 3.6005 4.76711 3.60071C4.71961 3.69415 4.62924 3.75863 4.52548 3.77319L1.79952 4.16575C1.50775 4.20511 1.23711 4.34169 1.03242 4.55392C0.531419 5.07433 0.547552 5.9016 1.06651 6.4022L1.06741 6.40307L3.04141 8.29773L3.04229 8.2986C3.11526 8.36827 3.1483 8.4692 3.1311 8.56767L2.66441 11.2431L2.66347 11.2487C2.61711 11.5333 2.66592 11.8232 2.79939 12.0763L2.80003 12.0775C3.14099 12.7197 3.93733 12.9649 4.58033 12.6252L7.01515 11.3633C7.01508 11.3633 7.01521 11.3632 7.01515 11.3633C7.11115 11.3137 7.22488 11.3137 7.32081 11.3633L9.75228 12.6235C9.75301 12.6239 9.75368 12.6243 9.75441 12.6247C10.0069 12.7578 10.2958 12.8057 10.5782 12.7608L10.5792 12.7607C11.2979 12.6448 11.7879 11.9686 11.6719 11.2488L11.2042 8.56773L11.204 8.56667C11.1865 8.46807 11.2194 8.36793 11.2923 8.29853L13.2667 6.4016C13.4796 6.19627 13.6165 5.92453 13.6553 5.6322L13.6554 5.6314C13.749 4.9178 13.2485 4.26079 12.5335 4.16505L9.80955 3.77278L9.80781 3.77253C9.70374 3.75792 9.61381 3.69328 9.56715 3.60063C9.56708 3.60055 9.56715 3.60069 9.56715 3.60063L8.34875 1.16592L8.34568 1.15985C8.21968 0.916439 8.02168 0.717946 7.77781 0.592153Z" fill="white"/>
</svg>
